<?xml version="1.0"?><svg id="Ebene_1" xmlns="http://www.w3.org/2000/svg" viewBox="0 0 891.87 185.26"><defs></defs><path fill="#ffffff" d="m19.67,100.73c0,1.3,0,2.23,0,3.15,0,26.19,0,52.38,0,78.57q0,2.81-2.82,2.81c-4.8,0-9.6,0-14.39,0H.04c0-.94,0-1.65,0-2.36C.04,122.73.05,62.55,0,2.38,0,.47.59.04,2.36.04c37.79.04,75.57-.14,113.36.12,14.24.1,27.13,5.01,38.48,13.68,13.37,10.21,22.04,23.8,27.85,39.37,5.64,15.12,7.93,30.81,7.25,46.86-.79,18.68-5.51,36.33-16.01,52.02-11.18,16.71-26.74,27.09-46.65,30.27-7.52,1.2-15.23,1.35-22.87,1.64-14.31.55-28.63.85-42.94,1.25-.72.02-1.45,0-2.4,0-.06-.88-.16-1.65-.16-2.41,0-21.53,0-43.05,0-64.58,0-2.62.01-2.63,2.67-2.63,5.4,0,10.8.06,16.19-.03,1.79-.03,2.39.46,2.36,2.35-.22,15.26-.33,30.52-.46,45.77-.02,2.51,0,2.43,2.57,2.37,6.73-.14,13.46-.08,20.18-.33,9.98-.38,19.95-.88,29.54-4.16,10.19-3.49,17.85-10.01,23.53-19.06,7.36-11.74,11.32-24.58,12.8-38.28,1.8-16.65-.02-32.82-6.28-48.4-5.27-13.11-14.08-23.26-26.28-30.33-6.15-3.56-12.93-5.36-20.04-5.38-30.85-.07-61.71-.03-92.56-.03-.85,0-1.7,0-2.67,0v60.36c.9.05,1.73.13,2.56.13,22.92,0,45.85.04,68.77-.05,2.35,0,3.47.86,3.95,2.95,1.12,4.81,1.19,9.62-.08,14.42-.53,2.01-1.72,2.84-3.91,2.84-22.79-.07-45.58-.04-68.37-.04-.92,0-1.83,0-3.06,0Z"></path><path fill="#ffffff" d="m286.71,107.1h-17.36V.02h60.43v14.79h-43.07v33.47h40.36v14.87h-40.36v43.95Z"></path><path fill="#ffffff" d="m362.52,64.33v42.77h-17.51V.02h30.25c13.82,0,24.05,2.59,30.69,7.76,6.64,5.18,9.96,12.99,9.96,23.44,0,13.33-6.93,22.83-20.8,28.49l30.25,47.39h-19.92l-25.63-42.77h-17.29Zm0-14.5h12.16c8.15,0,14.06-1.51,17.72-4.54,3.66-3.03,5.49-7.52,5.49-13.48s-1.98-10.4-5.93-13.04-9.91-3.96-17.87-3.96h-11.57v35.01Z"></path><path fill="#ffffff" d="m466.07,48.87L491.41.02h19.04l-35.67,65.55v41.53h-17.58v-40.94L421.68.02h19.04l25.34,48.85Z"></path><path fill="#ffffff" d="m609.79,52.53c0,17.68-4.91,31.19-14.72,40.54-9.81,9.35-23.95,14.03-42.41,14.03h-29.96V.02h33.11c17.04,0,30.3,4.59,39.77,13.77,9.47,9.18,14.21,22.1,14.21,38.75Zm-18.46.59c0-25.63-11.99-38.45-35.96-38.45h-15.16v77.71h12.45c25.78,0,38.67-13.08,38.67-39.26Z"></path><path fill="#ffffff" d="m689.33,107.1h-60.57V.02h60.57v14.79h-43.07v29.15h40.36v14.65h-40.36v33.62h43.07v14.87Z"></path><path fill="#ffffff" d="m797.64,107.1h-21.46l-52.66-85.33h-.59l.37,4.76c.68,9.04,1.03,17.38,1.03,24.9v55.66h-15.89V.02h21.24l52.52,84.89h.44c-.1-1.12-.29-5.21-.59-12.27-.29-7.06-.44-12.56-.44-16.52V.02h16.04v107.08Z"></path><path fill="#ffffff" d="m860.38,107.1h-17.5V15.03h-31.49V.02h80.49v15.01h-31.49v92.07Z"></path><path fill="#ffffff" d="m297.56,184.72h-28.21v-4.48l19.88-29.42h-19.34v-5.53h27.13v4.53l-19.96,29.37h20.5v5.53Z"></path><path fill="#ffffff" d="m322.57,184.72l-1.27-4.15h-.22c-1.44,1.82-2.89,3.05-4.34,3.71-1.46.66-3.33.98-5.61.98-2.93,0-5.22-.79-6.86-2.37-1.65-1.58-2.47-3.82-2.47-6.72,0-3.07,1.14-5.39,3.42-6.96s5.76-2.42,10.44-2.56l5.15-.16v-1.59c0-1.91-.44-3.33-1.33-4.27-.89-.94-2.27-1.42-4.14-1.42-1.53,0-2.99.22-4.4.67-1.4.45-2.75.98-4.05,1.59l-2.05-4.53c1.62-.85,3.39-1.49,5.31-1.93,1.92-.44,3.74-.66,5.45-.66,3.79,0,6.66.83,8.59,2.48,1.93,1.65,2.9,4.25,2.9,7.79v20.09h-4.53Zm-9.44-4.31c2.3,0,4.15-.64,5.54-1.93,1.39-1.29,2.09-3.09,2.09-5.41v-2.59l-3.83.16c-2.98.11-5.16.61-6.51,1.5-1.36.89-2.04,2.25-2.04,4.09,0,1.33.39,2.36,1.19,3.09.79.73,1.98,1.09,3.56,1.09Z"></path><path fill="#ffffff" d="m361.08,184.72h-6.36v-18.34c0-2.3-.46-4.02-1.39-5.15-.93-1.13-2.39-1.7-4.41-1.7-2.66,0-4.61.8-5.86,2.39-1.25,1.59-1.88,4.26-1.88,8v14.81h-6.34v-41.96h6.34v10.65c0,1.71-.11,3.53-.32,5.48h.4c.86-1.44,2.06-2.55,3.6-3.34s3.33-1.19,5.38-1.19c7.23,0,10.84,3.64,10.84,10.92v19.44Z"></path><path fill="#ffffff" d="m395.06,184.72h-6.36v-18.34c0-2.3-.46-4.02-1.39-5.15-.93-1.13-2.39-1.7-4.41-1.7-2.68,0-4.64.79-5.88,2.37-1.24,1.58-1.86,4.23-1.86,7.96v14.86h-6.34v-29.83h4.96l.89,3.91h.32c.9-1.42,2.18-2.52,3.83-3.29,1.65-.77,3.49-1.16,5.5-1.16,7.15,0,10.73,3.64,10.73,10.92v19.44Z"></path><path fill="#ffffff" d="m421.35,184.72l-1.27-4.15h-.22c-1.44,1.82-2.89,3.05-4.34,3.71s-3.33.98-5.61.98c-2.93,0-5.22-.79-6.86-2.37-1.64-1.58-2.47-3.82-2.47-6.72,0-3.07,1.14-5.39,3.42-6.96s5.76-2.42,10.44-2.56l5.15-.16v-1.59c0-1.91-.45-3.33-1.34-4.27-.89-.94-2.27-1.42-4.14-1.42-1.53,0-2.99.22-4.4.67-1.4.45-2.75.98-4.04,1.59l-2.05-4.53c1.62-.85,3.39-1.49,5.31-1.93,1.92-.44,3.74-.66,5.45-.66,3.79,0,6.66.83,8.59,2.48,1.93,1.65,2.9,4.25,2.9,7.79v20.09h-4.53Zm-15.59-37.73c0-1.11.3-1.92.9-2.41.6-.49,1.33-.74,2.2-.74.95,0,1.71.28,2.28.84.57.56.85,1.33.85,2.32s-.29,1.72-.86,2.29c-.57.58-1.33.86-2.27.86-.86,0-1.59-.26-2.2-.78-.6-.52-.9-1.31-.9-2.37Zm6.15,33.41c2.3,0,4.15-.64,5.54-1.93,1.39-1.29,2.09-3.09,2.09-5.41v-2.59l-3.83.16c-2.99.11-5.16.61-6.51,1.5-1.36.89-2.04,2.25-2.04,4.09,0,1.33.4,2.36,1.19,3.09.79.73,1.98,1.09,3.56,1.09Zm4.45-33.41c0,1.11.3-1.92.9-2.41.6-.49,1.33-.74,2.2-.74.95,0,1.72.28,2.29.84.57.56.86,1.33.86,2.32s-.3,1.74-.89,2.31c-.59.57-1.35.85-2.27.85-.86,0-1.6-.26-2.2-.78-.6-.52-.9-1.31-.9-2.37Z"></path><path fill="#ffffff" d="m448.76,154.36c1.28,0,2.33.09,3.15.27l-.62,5.91c-.9-.22-1.83-.32-2.8-.32-2.53,0-4.59.83-6.16,2.48-1.57,1.65-2.36,3.8-2.36,6.45v15.59h-6.34v-29.83h4.96l.84,5.26h.32c.99-1.78,2.28-3.19,3.87-4.23,1.59-1.04,3.3-1.56,5.14-1.56Z"></path><path fill="#ffffff" d="m477.51,184.72h-22.63v-3.91l15.07-21.06h-14.16v-4.85h21.28v4.42l-14.75,20.55h15.18v4.85Z"></path><path fill="#ffffff" d="m495.38,180.14c1.55,0,3.09-.24,4.64-.73v4.77c-.7.31-1.6.56-2.71.77-1.1.21-2.25.31-3.44.31-6,0-9.01-3.16-9.01-9.49v-16.07h-4.07v-2.8l4.37-2.32,2.16-6.31h3.91v6.63h8.49v4.8h-8.49v15.97c0,1.53.38,2.66,1.15,3.38.76.73,1.77,1.09,3.01,1.09Z"></path><path fill="#ffffff" d="m517.82,185.26c-4.64,0-8.27-1.35-10.88-4.06s-3.92-6.43-3.92-11.18,1.21-8.7,3.64-11.49c2.43-2.79,5.76-4.18,10.01-4.18,3.94,0,7.05,1.2,9.33,3.59,2.28,2.39,3.43,5.68,3.43,9.87v3.43h-19.88c.09,2.89.87,5.12,2.35,6.67,1.47,1.56,3.55,2.33,6.23,2.33,1.76,0,3.4-.17,4.92-.5,1.52-.33,3.15-.89,4.89-1.66v5.15c-1.55.74-3.11,1.26-4.69,1.56-1.58.31-3.39.46-5.42.46Zm-1.16-26.11c-2.01,0-3.63.64-4.84,1.91-1.21,1.28-1.94,3.14-2.17,5.58h13.54c-.04-2.46-.63-4.33-1.78-5.6-1.15-1.27-2.73-1.9-4.75-1.9Z"></path><path fill="#ffffff" d="m550.58,147c0-1.13.31-2,.93-2.62.62-.61,1.5-.92,2.66-.92s1.98.31,2.6.92.93,1.48.93,2.62-.31,1.93-.93,2.55c-.62.62-1.49.93-2.6.93s-2.04-.31-2.66-.93c-.62-.62-.93-1.47-.93-2.55Zm6.72,37.73h-6.34v-29.83h6.34v29.83Z"></path><path fill="#ffffff" d="m591.46,184.72h-6.36v-18.34c0-2.3-.46-4.02-1.39-5.15-.93-1.13-2.39-1.7-4.41-1.7-2.68,0-4.64.79-5.88,2.37-1.24,1.58-1.86,4.23-1.86,7.96v14.86h-6.34v-29.83h4.96l.89,3.91h.32c.9-1.42,2.18-2.52,3.83-3.29,1.65-.77,3.49-1.16,5.5-1.16,7.15,0,10.73,3.64,10.73,10.92v19.44Z"></path><path fill="#ffffff" d="m615.3,145.3h11.7c5.43,0,9.35.79,11.77,2.37,2.42,1.58,3.63,4.08,3.63,7.5,0,2.3-.59,4.22-1.78,5.74-1.19,1.53-2.89,2.49-5.12,2.89v.27c2.77.52,4.81,1.55,6.11,3.09,1.3,1.54,1.95,3.62,1.95,6.24,0,3.54-1.24,6.31-3.71,8.32-2.47,2-5.91,3.01-10.32,3.01h-14.24v-39.43Zm6.45,16.29h6.2c2.7,0,4.67-.43,5.91-1.28,1.24-.85,1.86-2.31,1.86-4.36,0-1.85-.67-3.19-2.01-4.02s-3.47-1.24-6.38-1.24h-5.58v10.9Zm0,5.23v12.49h6.85c2.7,0,4.73-.52,6.11-1.55,1.37-1.03,2.06-2.67,2.06-4.89,0-2.05-.7-3.57-2.1-4.56-1.4-.99-3.53-1.48-6.39-1.48h-6.53Z"></path><path fill="#ffffff" d="m676.84,169.76c0,4.87-1.25,8.67-3.75,11.41-2.5,2.73-5.98,4.1-10.44,4.1-2.79,0-5.25-.63-7.39-1.89s-3.79-3.07-4.93-5.42c-1.15-2.35-1.73-5.09-1.73-8.2,0-4.84,1.24-8.61,3.72-11.33,2.48-2.71,5.98-4.07,10.49-4.07s7.73,1.39,10.25,4.17c2.52,2.78,3.78,6.52,3.78,11.23Zm-21.71,0c0,6.89,2.54,10.33,7.63,10.33s7.55-3.44,7.55-10.33-2.54-10.22-7.61-10.22c-2.66,0-4.59.88-5.74,2.64-1.2,1.76-1.79,4.29-1.79,7.58Z"></path><path fill="#ffffff" d="m709.39,184.72h-6.36v-18.34c0-2.3-.46-4.02-1.39-5.15-.93-1.13-2.39-1.7-4.41-1.7-2.68,0-4.64.79-5.88,2.37-1.24,1.58-1.86,4.23-1.86,7.96v14.86h-6.34v-29.83h4.96l.89,3.91h.32c.9-1.42,2.18-2.52,3.83-3.29,1.65-.77,3.49-1.16,5.5-1.16,7.15,0,10.73,3.64,10.73,10.92v19.44Z"></path><path fill="#ffffff" d="m743.37,184.72h-6.36v-18.34c0-2.3-.46-4.02-1.39-5.15-.93-1.13-2.39-1.7-4.41-1.7-2.68,0-4.64.79-5.88,2.37-1.24,1.58-1.86,4.23-1.86,7.96v14.86h-6.34v-29.83h4.96l.89,3.91h.32c.9-1.42,2.18-2.52,3.83-3.29,1.65-.77,3.49-1.16,5.5-1.16,7.15,0,10.73,3.64,10.73,10.92v19.44Z"></path><path fill="#ffffff" d="m761.43,185.26c-3.72,0-6.63-1.35-8.71-4.05s-3.13-6.48-3.13-11.35,1.06-8.7,3.17-11.42c2.11-2.72,5.04-4.09,8.78-4.09s6.9,1.45,8.95,4.34h.32c-.31-2.14-.46-3.83-.46-5.07v-10.87h6.36v41.96h-4.96l-1.11-3.91h-.3c-2.03,2.97-5.01,4.45-8.93,4.45Zm1.7-5.12c2.61,0,4.5-.73,5.69-2.2,1.19-1.47,1.8-3.84,1.83-7.13v-.89c0-3.76-.61-6.43-1.83-8.01-1.22-1.58-3.14-2.37-5.74-2.37-2.23,0-3.95.9-5.15,2.71-1.2,1.81-1.81,4.38-1.81,7.73s.58,5.83,1.75,7.56c1.17,1.73,2.92,2.6,5.26,2.6Z"></path><path fill="#ffffff" d="m811.29,169.76c0,4.87-1.25,8.67-3.75,11.41s-5.98,4.1-10.44,4.1c-2.79,0-5.25-.63-7.39-1.89s-3.78-3.07-4.93-5.42c-1.15-2.35-1.73-5.09-1.73-8.2,0-4.84,1.24-8.61,3.72-11.33,2.48-2.71,5.98-4.07,10.49-4.07s7.73,1.39,10.25,4.17c2.52,2.78,3.78,6.52,3.78,11.23Zm-21.71,0c0,6.89,2.54,10.33,7.63,10.33s7.55-3.44,7.55-10.33-2.54-10.22-7.61-10.22c-2.66,0-4.59.88-5.78,2.64-1.2,1.76-1.79,4.29-1.79,7.58Z"></path><path fill="#ffffff" d="m832.73,154.36c1.28,0,2.33.09,3.16.27l-.62,5.91c-.9-.22-1.83-.32-2.8-.32-2.54,0-4.59.83-6.16,2.48-1.57,1.65-2.36,3.8-2.36,6.45v15.59h-6.34v-29.83h4.96l.84,5.26h.32c.99-1.78,2.28-3.19,3.87-4.23,1.59-1.04,3.3-1.56,5.14-1.56Z"></path><path fill="#ffffff" d="m857.38,159.7h-7.28v25.03h-6.36v-25.03h-4.91v-2.97l4.91-1.94v-1.94c0-3.52.83-6.14,2.48-7.83,1.65-1.7,4.18-2.55,7.58-2.55,2.23,0,4.42.37,6.58,1.11l-1.67,4.8c-1.56-.5-3.06-.76-4.44-.76s-2.49.45-3.14,1.33c-.66.89-.98,2.23-.98,4.01v1.94h7.28v4.8Z"></path><rect fill="#ffffff" x="227.91" y="0" width="3" height="185.26"></rect></svg>